#!OML:ASF H:\Dans Jumps\Project 1\Capture day 1\Session 1\subject.ASF
:FULLY-SPECIFIED
:DEGREES
335
root 0.572554 14.6576 -16.5185 24.5458 -1.26445 -1.67814
lowerback 27.5814 0.120853 -0.184345
upperback 13.092 0.160113 1.90094
thorax -0.626333 -0.0189643 2.1333
lowerneck -17.7598 1.0867 -1.01154
upperneck 9.69088 1.90519 -1.43168
head 5.82193 0.770863 -0.103581
rclavicle -4.91992e-015 -2.68359e-015
rhumerus -43.0121 -11.1517 -72.8688
rradius 26.5585
rwrist 25.2805
rhand -18.9908 -23.1815
rfingers 7.12502
rthumb 7.31407 -53.035
lclavicle -4.91992e-015 -2.68359e-015
lhumerus -44.5929 -3.26392 87.9519
lradius 18.27
lwrist 17.63
lhand -28.7066 -6.02408
lfingers 7.12502
lthumb -2.06832 23.9456
rfemur -74.3546 -4.71056 22.2891
rtibia 75.8908
rfoot -23.2826 -9.6623
rtoes 1.24605
lfemur -73.7011 8.13619 -23.436
ltibia 75.5136
lfoot -22.4497 12.7897
ltoes -1.24841
336
root 0.574359 14.6538 -16.5178 24.579 -1.27393 -1.67123
lowerback 27.6114 0.146202 -0.15806
upperback 13.1151 0.19752 1.90591
thorax -0.615503 6.72092e-005 2.11377
lowerneck -17.7525 1.07523 -0.977813
upperneck 9.66112 1.88401 -1.45306
head 5.81176 0.760531 -0.118051
rclavicle -5.56597e-015 -8.74653e-015
rhumerus -43.3725 -11.363 -72.6403
rradius 26.4941
rwrist 25.3865
rhand -18.9913 -23.1627
rfingers 7.12502
rthumb 7.31353 -53.0163
lclavicle -5.56597e-015 -8.74653e-015
lhumerus -44.9639 -3.25322 87.9534
lradius 18.23
lwrist 17.6758
lhand -28.5409 -5.94017
lfingers 7.12502
lthumb -1.90836 24.031
rfemur -74.4198 -4.69076 22.2649
rtibia 75.9402
rfoot -23.2912 -9.69003
rtoes 1.2246
lfemur -73.7621 8.13437 -23.4585
ltibia 75.5558
lfoot -22.4633 12.7977
ltoes -1.26349
337
root 0.576153 14.6501 -16.5169 24.6155 -1.28799 -1.66147
lowerback 27.6373 0.175169 -0.131855
upperback 13.1337 0.239214 1.90596
thorax -0.607919 0.0214576 2.08769
lowerneck -17.7432 1.05894 -0.941804
upperneck 9.6382 1.85439 -1.46377
head 5.80328 0.746967 -0.130315
rclavicle -1.98785e-015 -1.98785e-014
rhumerus -43.7385 -11.5888 -72.4094
rradius 26.4218
rwrist 25.4497
rhand -18.9946 -23.1572
rfingers 7.12502
rthumb 7.31038 -53.0109
lclavicle -1.98785e-015 -1.98785e-014
lhumerus -45.3255 -3.2367 87.9296
lradius 18.1808
lwrist 17.7088
lhand -28.4057 -5.89713
lfingers 7.12502
lthumb -1.77776 24.0752
rfemur -74.4881 -4.66805 22.2364
rtibia 75.9884
rfoot -23.2973 -9.71869
rtoes 1.19826
lfemur -73.8249 8.13484 -23.4863
ltibia 75.5956
lfoot -22.4769 12.8059
ltoes -1.27561
338
root 0.577899 14.6467 -16.516 24.6502 -1.30467 -1.64877
lowerback 27.6663 0.204936 -0.108473
upperback 13.1489 0.281219 1.90337
thorax -0.605657 0.0430369 2.06027
lowerneck -17.7434 1.03753 -0.911592
upperneck 9.6315 1.8181 -1.46271
head 5.80132 0.730644 -0.138466
rclavicle 3.18055e-015 1.82385e-014
rhumerus -44.1006 -11.8009 -72.1881
rradius 26.3437
rwrist 25.4529
rhand -19.0018 -23.179
rfingers 7.12502
rthumb 7.30337 -53.033
lclavicle 3.18055e-015 1.82385e-014
lhumerus -45.6786 -3.22271 87.8978
lradius 18.1204
lwrist 17.7355
lhand -28.3686 -5.90881
lfingers 7.12502
lthumb -1.74192 24.0638
rfemur -74.5529 -4.64416 22.2036
rtibia 76.0363
rfoot -23.3048 -9.74733
rtoes 1.17933
lfemur -73.8832 8.13714 -23.5181
ltibia 75.6336
lfoot -22.4947 12.8104
ltoes -1.27282
339
root 0.57961 14.6434 -16.5151 24.6838 -1.32169 -1.63086
lowerback 27.6962 0.233992 -0.0911195
upperback 13.1618 0.321038 1.90077
thorax -0.60624 0.0633224 2.03686
lowerneck -17.7514 1.01312 -0.891143
upperneck 9.63364 1.77928 -1.45379
head 5.80324 0.713206 -0.142738
rclavicle -3.67752e-015 4.62174e-015
rhumerus -44.456 -11.9981 -71.9705
rradius 26.2584
rwrist 25.4417
rhand -19.0115 -23.2095
rfingers 7.12502
rthumb 7.29403 -53.0638
lclavicle -3.67752e-015 4.62174e-015
lhumerus -46.0235 -3.20458 87.8597
lradius 18.0566
lwrist 17.7606
lhand -28.3486 -5.91914
lfingers 7.12502
lthumb -1.72259 24.0537
rfemur -74.6166 -4.6207 22.1639
rtibia 76.0851
rfoot -23.3134 -9.77671
rtoes 1.16363
lfemur -73.9392 8.1365 -23.5549
ltibia 75.6709
lfoot -22.5119 12.8162
ltoes -1.26361
340
root 0.581229 14.6399 -16.5142 24.7164 -1.33693 -1.61201
lowerback 27.7272 0.258906 -0.0825405
upperback 13.1743 0.35394 1.90293
thorax -0.607414 0.0796353 2.02553
lowerneck -17.7751 0.992378 -0.87864
upperneck 9.64611 1.74845 -1.45002
head 5.81102 0.698733 -0.146478
rclavicle -3.08116e-015 5.96354e-016
rhumerus -44.785 -12.1564 -71.7652
rradius 26.1613
rwrist 25.4148
rhand -19.0048 -23.2693
rfingers 7.12502
rthumb 7.30052 -53.1234
lclavicle -3.08116e-015 5.96354e-016
lhumerus -46.3613 -3.1728 87.8248
lradius 17.9924
lwrist 17.7689
lhand -28.338 -5.91172
lfingers 7.12502
lthumb -1.7124 24.0612
rfemur -74.6802 -4.59862 22.1234
rtibia 76.1359
rfoot -23.3238 -9.80591
rtoes 1.14974
lfemur -73.9948 8.13215 -23.5908
ltibia 75.709
lfoot -22.527 12.8256
ltoes -1.2577
341
root 0.582773 14.6363 -16.5134 24.7473 -1.34999 -1.59177
lowerback 27.7608 0.280516 -0.0815462
upperback 13.1867 0.381246 1.90969
thorax -0.609765 0.0926875 2.02508
lowerneck -17.8123 0.96855 -0.888677
upperneck 9.66634 1.71723 -1.43209
head 5.82312 0.684205 -0.142054
rclavicle 8.74653e-015 -2.23633e-015
rhumerus -45.0982 -12.2854 -71.5643
rradius 26.0539
rwrist 25.442
rhand -19.0115 -23.3169
rfingers 7.12502
rthumb 7.29409 -53.1712
lclavicle 8.74653e-015 -2.23633e-015
lhumerus -46.6923 -3.13758 87.7992
lradius 17.9275
lwrist 17.7548
lhand -28.3795 -5.91642
lfingers 7.12502
lthumb -1.75248 24.0561
rfemur -74.7431 -4.57887 22.0818
rtibia 76.1885
rfoot -23.3367 -9.8348
rtoes 1.13654
lfemur -74.0497 8.12432 -23.6267
ltibia 75.7484
lfoot -22.5395 12.8412
ltoes -1.26375
342
root 0.584206 14.6324 -16.5127 24.779 -1.35911 -1.57156
lowerback 27.7953 0.296944 -0.08793
upperback 13.1993 0.400704 1.9221
thorax -0.612081 0.101334 2.03716
lowerneck -17.8561 0.95273 -0.902634
upperneck 9.68087 1.69931 -1.42534
head 5.83461 0.675116 -0.139229
rclavicle -1.98785e-015 8.89561e-015
rhumerus -45.3935 -12.388 -71.3635
rradius 25.9415
rwrist 25.5451
rhand -19.0183 -23.3464
rfingers 7.12502
rthumb 7.28745 -53.2009
lclavicle -1.98785e-015 8.89561e-015
lhumerus -47.0157 -3.09013 87.7801
lradius 17.8653
lwrist 17.716
lhand -28.435 -5.91989
lfingers 7.12502
lthumb -1.80599 24.0522
rfemur -74.8094 -4.56331 22.0425
rtibia 76.2435
rfoot -23.3505 -9.86216
rtoes 1.12132
lfemur -74.1084 8.11257 -23.6612
ltibia 75.7899
lfoot -22.5498 12.8602
ltoes -1.27753
